<svg id="logo" xmlns="http://www.w3.org/2000/svg" width="175.9" height="61.45" viewBox="0 0 175.9 61.45">
  <g id="text" transform="translate(76.835 5.07)">
    <path id="Path_272" data-name="Path 272" d="M184.884,20.887c3.25.823,6.76,2.123,6.587,6.89-.217,3.987-3.9,5.937-7.194,5.937a7.318,7.318,0,0,1-6.977-4.854l2.86-1.43c1,2.123,2.427,3.164,4.2,3.164,2.08.043,3.6-1.213,3.684-2.99.173-2.513-2.3-3.25-4.03-3.684-2.687-.737-6.24-2.037-6.067-6.284.087-4.117,3.467-5.937,6.63-5.937a6.822,6.822,0,0,1,6.5,4.68l-2.687,1.213a4.216,4.216,0,0,0-3.813-2.86,3.028,3.028,0,0,0-3.25,2.947c-.217,1.993,2.037,2.817,3.554,3.207" transform="translate(-177.3 -11.7)" fill="#010101"/>
    <path id="Path_273" data-name="Path 273" d="M222.867,12.8V27.534a3.5,3.5,0,0,0,3.814,3.6c1.907,0,3.857-1.04,3.857-3.6V12.8H234V27.534c0,4.767-3.684,6.717-7.324,6.717-3.684,0-7.28-1.95-7.28-6.717V12.8Z" transform="translate(-201.155 -12.324)" fill="#010101"/>
    <path id="Path_274" data-name="Path 274" d="M268.924,33.791H265.5V12.6h6.544a6.855,6.855,0,0,1,7.28,6.977c0,3.467-2.427,6.847-7.237,6.847h-3.163ZM275.9,19.577a3.826,3.826,0,0,0-3.857-3.857h-3.12V23.3h3.12a3.721,3.721,0,0,0,3.857-3.727" transform="translate(-227.278 -12.21)" fill="#010101"/>
    <path id="Path_275" data-name="Path 275" d="M317.431,15.747h-8.364v6.067H317.3v2.947h-8.234v6.154h8.364v2.947H305.6V12.8h11.831Z" transform="translate(-250.002 -12.324)" fill="#010101"/>
    <path id="Path_276" data-name="Path 276" d="M359.311,33.861h-4.074l-6.2-8.147h-1.473v8.147H344.1V12.8h6.934c4.16,0,7.324,1.863,7.367,6.544a5.9,5.9,0,0,1-5.417,6.284Zm-8.277-11.181c2.383,0,3.857-1.213,3.857-3.38,0-2.21-1.6-3.38-3.857-3.38h-3.467v6.76Z" transform="translate(-271.816 -12.324)" fill="#010101"/>
    <path id="Path_277" data-name="Path 277" d="M194.011,85.047a7.6,7.6,0,0,0-5.764-2.47c-4.81.087-7.28,4.117-7.28,7.974,0,3.814,2.513,7.8,7.28,7.8a8.407,8.407,0,0,0,6.24-2.99l2.383,1.863a10.812,10.812,0,0,1-8.624,4.247c-7.02,0-10.747-5.46-10.747-10.921S181.227,79.5,188.247,79.5a9.7,9.7,0,0,1,7.93,3.554Z" transform="translate(-177.413 -50.119)" fill="#010101"/>
    <path id="Path_278" data-name="Path 278" d="M246.411,101.561h-4.074l-6.2-8.147h-1.473v8.147H231.2V80.5h6.934c4.16,0,7.324,1.863,7.367,6.544a5.9,5.9,0,0,1-5.417,6.284Zm-8.234-11.181c2.383,0,3.857-1.213,3.857-3.38,0-2.21-1.6-3.38-3.857-3.38H234.71v6.76Z" transform="translate(-207.844 -50.685)" fill="#010101"/>
    <path id="Path_279" data-name="Path 279" d="M284.031,83.49h-8.364v6.024H283.9V92.5h-8.234v6.11h8.364v2.947H272.2V80.5h11.831Z" transform="translate(-231.075 -50.685)" fill="#010101"/>
    <path id="Path_280" data-name="Path 280" d="M328.278,90.514c0,5.374-2.9,10.921-10.184,10.877H310.9V80.2h7.194c6.934,0,10.184,5.114,10.184,10.314m-3.424.26c0-3.727-1.993-7.41-6.76-7.41H314.28V98.271h3.77c4.94.087,6.8-3.727,6.8-7.5" transform="translate(-253.004 -50.515)" fill="#010101"/>
    <rect id="Rectangle_31" data-name="Rectangle 31" width="3.424" height="21.148" transform="translate(79.477 29.771)" fill="#010101"/>
    <path id="Path_281" data-name="Path 281" d="M388.334,80.4v3.164H383.35V101.5h-3.467V83.563H374.9V80.4Z" transform="translate(-289.269 -50.628)" fill="#010101"/>
  </g>
  <g id="coin" transform="translate(0)">
    <path id="Path_249" data-name="Path 249" d="M105.5,137c-.3.173-.607.347-.953.52-.13.043-.217.13-.347.173h2.123c.65-.217,1.257-.433,1.907-.693H105.5Z" transform="translate(-59.043 -77.63)" fill="#f78900"/>
    <path id="Path_250" data-name="Path 250" d="M151.53,67.4H146.2c.043.477.043,1,.043,1.517s0,1.04-.043,1.56h5.33c.043-.52.043-1.04.043-1.56,0-.477-.043-1-.043-1.517" transform="translate(-82.843 -38.192)" fill="#f78900"/>
    <path id="Path_251" data-name="Path 251" d="M136.1,33.1a21.309,21.309,0,0,1,1.04,1.95h5.114c-.347-.65-.737-1.343-1.127-1.95H136.1Z" transform="translate(-77.12 -18.756)" fill="#f78900"/>
    <path id="Path_252" data-name="Path 252" d="M113.743,131.6c-.433.3-.867.65-1.343.953h3.467c.563-.3,1.127-.607,1.647-.953h-3.77Z" transform="translate(-63.69 -74.57)" fill="#f78900"/>
    <path id="Path_253" data-name="Path 253" d="M131.4,26a19.771,19.771,0,0,1,1.17,1.69h4.94q-.65-.91-1.3-1.69H131.4Z" transform="translate(-74.457 -14.733)" fill="#f78900"/>
    <path id="Path_254" data-name="Path 254" d="M140,40.9c.3.737.607,1.473.867,2.21h5.2c-.3-.737-.607-1.473-.953-2.21H140Z" transform="translate(-79.33 -23.176)" fill="#f78900"/>
    <path id="Path_255" data-name="Path 255" d="M119.7,13.5c.433.39.91.78,1.343,1.213h4.377c-.52-.433-1-.823-1.56-1.213H119.7Z" transform="translate(-67.827 -7.65)" fill="#f78900"/>
    <path id="Path_256" data-name="Path 256" d="M105.7,4.15h2.73a15.879,15.879,0,0,0-1.863-.65H104.4a.948.948,0,0,1,.217.13,4.988,4.988,0,0,1,1.083.52" transform="translate(-59.157 -1.983)" fill="#f78900"/>
    <path id="Path_257" data-name="Path 257" d="M143.1,49.2q.39,1.235.65,2.47h5.244c-.173-.823-.433-1.647-.693-2.47h-5.2Z" transform="translate(-81.086 -27.879)" fill="#f78900"/>
    <path id="Path_258" data-name="Path 258" d="M112.6,8.2c.433.3.91.607,1.343.953h3.814c-.52-.347-1.083-.65-1.647-.953H112.6Z" transform="translate(-63.803 -4.646)" fill="#f78900"/>
    <path id="Path_259" data-name="Path 259" d="M125.9,19.5c.433.477.867.953,1.3,1.473h4.68c-.477-.52-.953-1-1.43-1.473H125.9Z" transform="translate(-71.339 -11.049)" fill="#f78900"/>
    <path id="Path_260" data-name="Path 260" d="M132.513,112c-.39.563-.78,1.17-1.213,1.69h4.767q.715-.845,1.3-1.69h-4.854Z" transform="translate(-74.4 -63.464)" fill="#f78900"/>
    <path id="Path_261" data-name="Path 261" d="M127.1,119.1c-.433.477-.823,1-1.3,1.473h4.55c.477-.477,1-.953,1.43-1.473H127.1Z" transform="translate(-71.284 -67.487)" fill="#f78900"/>
    <path id="Path_262" data-name="Path 262" d="M120.943,125.7c-.433.39-.867.823-1.343,1.213h4.16c.52-.39,1.04-.78,1.56-1.213h-4.377Z" transform="translate(-67.771 -71.227)" fill="#f78900"/>
    <path id="Path_263" data-name="Path 263" d="M137.14,104.3l-1.04,1.95h5.027c.39-.65.78-1.3,1.127-1.95H137.14Z" transform="translate(-77.12 -59.101)" fill="#f78900"/>
    <path id="Path_264" data-name="Path 264" d="M145.2,58c.173.91.26,1.777.347,2.687h5.33a26.732,26.732,0,0,0-.39-2.687H145.2Z" transform="translate(-82.277 -32.865)" fill="#f78900"/>
    <path id="Path_265" data-name="Path 265" d="M145.547,77.7c-.087.91-.217,1.82-.347,2.687h5.33c.173-.91.3-1.777.39-2.687h-5.374Z" transform="translate(-82.277 -44.028)" fill="#f78900"/>
    <path id="Path_266" data-name="Path 266" d="M140.867,96c-.26.737-.563,1.473-.867,2.21h5.114c.347-.737.65-1.473.953-2.21h-5.2Z" transform="translate(-79.33 -54.398)" fill="#f78900"/>
    <path id="Path_267" data-name="Path 267" d="M143.65,87.1q-.26,1.235-.65,2.47h5.244c.26-.823.477-1.647.693-2.47H143.65Z" transform="translate(-81.03 -49.354)" fill="#f78900"/>
    <path id="Path_268" data-name="Path 268" d="M52.749,56.259c.52-.433,1.04-.91,1.517-1.387.563-.563,1.083-1.127,1.6-1.69A17.468,17.468,0,0,0,57,51.8c.477-.65.953-1.3,1.343-1.95a14.612,14.612,0,0,0,.823-1.387c.39-.737.78-1.473,1.083-2.21a13.237,13.237,0,0,0,.563-1.387,23.391,23.391,0,0,0,.78-2.47c.13-.477.217-.91.347-1.387a26.721,26.721,0,0,0,.433-2.687c.043-.477.087-.91.13-1.387.043-.52.043-1.04.043-1.56s0-1-.043-1.517c-.043-.477-.043-.91-.13-1.387a26.72,26.72,0,0,0-.433-2.687c-.087-.477-.217-.91-.347-1.387q-.325-1.235-.78-2.47c-.173-.477-.347-.91-.563-1.387-.347-.737-.693-1.473-1.083-2.21-.26-.477-.52-.91-.823-1.387A22.043,22.043,0,0,0,57,18.991,17.471,17.471,0,0,0,55.869,17.6a19.875,19.875,0,0,0-1.6-1.69c-.477-.477-1-.953-1.517-1.387-.607-.52-1.257-1-1.907-1.473-.693-.477-1.43-.953-2.21-1.387s-1.56-.823-2.383-1.213a24.536,24.536,0,0,0-3.9-1.387A27.719,27.719,0,0,0,35.371,8.2a27.866,27.866,0,0,0-10.4,2.08,2.177,2.177,0,0,1-.563.217,24.625,24.625,0,0,0-2.383,1.213c-.737.433-1.473.867-2.21,1.387-.26.173-.477.347-.737.52a32.94,32.94,0,0,0-2.643,2.253,27.16,27.16,0,0,0,.043,39,25.95,25.95,0,0,0,2.643,2.253,5.519,5.519,0,0,0,.823.563c.693.477,1.43.953,2.21,1.387s1.56.823,2.383,1.213c.13.043.3.13.433.173a31.143,31.143,0,0,0,3.554,1.213,27.823,27.823,0,0,0,13.781,0,25.521,25.521,0,0,0,3.987-1.387,24.627,24.627,0,0,0,2.383-1.213,19.015,19.015,0,0,0,2.21-1.387c.607-.433,1.257-.91,1.863-1.43" transform="translate(-4.647 -4.646)" fill="#f78900"/>
    <path id="Path_269" data-name="Path 269" d="M48.666,55.643c.52-.39,1.04-.78,1.56-1.213s1.04-.91,1.56-1.387c.477-.477,1-.953,1.43-1.473.433-.433.823-.91,1.213-1.387q.715-.845,1.3-1.69a15.3,15.3,0,0,0,.91-1.387c.39-.65.78-1.3,1.127-1.95a13.791,13.791,0,0,0,.693-1.387c.347-.737.65-1.473.953-2.21.173-.477.347-.91.477-1.387.26-.823.477-1.647.693-2.47.087-.477.217-.91.3-1.387.173-.91.3-1.777.39-2.687.043-.477.087-.91.087-1.387.043-.52.043-1.04.043-1.56s0-1-.043-1.517c-.043-.477-.043-.91-.087-1.387a26.726,26.726,0,0,0-.39-2.687c-.087-.477-.173-.91-.3-1.387-.173-.823-.433-1.647-.693-2.47-.13-.477-.3-.91-.477-1.387-.3-.737-.607-1.473-.953-2.21-.217-.477-.433-.91-.693-1.387-.347-.65-.737-1.343-1.127-1.95-.3-.477-.607-.91-.91-1.387-.433-.563-.867-1.17-1.3-1.69-.39-.477-.78-.953-1.213-1.387-.477-.52-.953-1-1.43-1.473-.52-.477-1.04-.953-1.56-1.387s-1-.823-1.56-1.213a24.772,24.772,0,0,0-2.08-1.387c-.52-.347-1.083-.65-1.647-.953-.867-.39-1.863-.867-2.9-1.257-.607-.26-1.257-.477-1.863-.693A28.867,28.867,0,0,0,34.365.217L33.2.087C32.372.043,31.548,0,30.725,0A9.8,9.8,0,0,0,29.6.043,34.2,34.2,0,0,0,25.915.39a30.712,30.712,0,0,0,0,60.67,34.205,34.205,0,0,0,3.684.347c.39,0,.737.043,1.127.043.563,0,1.17,0,1.733-.043.65-.043,1.257-.087,1.907-.173A30.29,30.29,0,0,0,40,60.02c.65-.217,1.257-.433,1.907-.693a27.246,27.246,0,0,0,3.033-1.387c.563-.3,1.127-.607,1.647-.953a13.112,13.112,0,0,0,2.08-1.343m-9.317,2.34a28.491,28.491,0,0,1-8.624,1.343,29.268,29.268,0,0,1-5.157-.477,31.924,31.924,0,0,1-3.51-.867c-.65-.217-1.3-.433-1.907-.693a27.575,27.575,0,0,1-3.033-1.43A28.583,28.583,0,0,1,17.161,5.59a32.52,32.52,0,0,1,3.033-1.43c.563-.217,1.17-.433,1.777-.65a24.84,24.84,0,0,1,3.64-.91,27.13,27.13,0,0,1,5.027-.433h.173a27.572,27.572,0,0,1,8.71,1.387,20.87,20.87,0,0,1,2.47.953c.953.433,1.863.867,2.773,1.387.65.39,1.3.78,1.95,1.213s1.257.91,1.863,1.387c.563.477,1.127.953,1.69,1.473.477.433.953.91,1.387,1.387.52.563,1,1.127,1.473,1.69.347.433.693.91,1.04,1.387.433.65.867,1.3,1.257,1.95.26.433.52.91.78,1.387.39.737.693,1.473,1.04,2.21.173.477.347.91.52,1.387.26.823.52,1.6.737,2.47.13.477.217.91.3,1.387a26.718,26.718,0,0,1,.39,2.687c.043.477.087.91.087,1.387.043.477.043,1,.043,1.517s0,1.04-.043,1.56c-.043.477-.043.91-.087,1.387a26.717,26.717,0,0,1-.39,2.687c-.087.477-.217.91-.3,1.387-.217.823-.477,1.647-.737,2.47-.173.477-.347.91-.52,1.387q-.455,1.105-1.04,2.21c-.26.477-.477.91-.78,1.387a21.53,21.53,0,0,1-1.257,1.95c-.347.477-.693.953-1.04,1.387a18.713,18.713,0,0,1-1.473,1.69c-.433.477-.91.953-1.387,1.387-.563.52-1.083,1-1.69,1.473s-1.257.953-1.863,1.387c-.65.433-1.3.823-1.95,1.213-.91.52-1.863.953-2.817,1.387-.867.217-1.733.52-2.6.823" transform="translate(0)" fill="#f78900"/>
  </g>
  <g id="sc" transform="translate(8.841 11.831)">
    <path id="Path_270" data-name="Path 270" d="M30.324,42.468c4.2,1.083,8.667,2.947,8.407,9.1-.26,4.42-3.467,6.8-7.064,7.454v3.467h-4.03V59.022a9.881,9.881,0,0,1-7.237-6.37l3.684-1.863a6.239,6.239,0,0,0,5.59,4.334c2.687.043,4.55-1.343,4.724-3.77.217-3.337-2.9-4.464-5.2-5.07-3.424-.91-8.147-2.557-7.93-8.017a7.71,7.71,0,0,1,6.414-7.5V27.3h4.03v3.424a8.364,8.364,0,0,1,6.327,5.59l-3.6,1.647A4.74,4.74,0,0,0,29.8,34.667a3.917,3.917,0,0,0-4.2,3.814c-.13,2.643,2.773,3.424,4.724,3.987" transform="translate(-20.4 -27.3)" fill="#fff"/>
    <path id="Path_271" data-name="Path 271" d="M67.707,44.2A13.492,13.492,0,0,1,81.1,34.1a15.059,15.059,0,0,1,6.544,1.647L85.864,39.43A10.975,10.975,0,0,0,81.1,38.26a9.489,9.489,0,0,0-8.71,5.937h10.7L82.4,47.274h-10.7a8.315,8.315,0,0,0-.043,2.08H81.964l-.65,3.077h-9.1A8.981,8.981,0,0,0,81.1,58.8a11.256,11.256,0,0,0,5.287-1.473l2.037,3.64A15.831,15.831,0,0,1,81.1,63,13.467,13.467,0,0,1,67.49,52.431H64.5l.65-3.077H67.1a11.126,11.126,0,0,1,.043-2.08H64.76l.693-3.077Z" transform="translate(-45.389 -31.153)" fill="#fff"/>
  </g>
</svg>
