<svg xmlns="http://www.w3.org/2000/svg" xmlns:xlink="http://www.w3.org/1999/xlink" width="990.934" height="820.652" viewBox="0 0 990.934 820.652"><defs><clipPath id="a"><rect width="990.933" height="820.652" fill="#3cd2f9"/></clipPath></defs><g clip-path="url(#a)"><path d="M545.355,467.682l65.179,149.44L297.942,627.3l-9.2,9.88L213.188,819.2,0,817.441,354.436,0,620.121,4.967l122.888,286.3c-1.084,10.141-132,82.458-151.516,90.561-11.794-39.768-32.047-79.227-50.379-116.6-15.435-31.468-35.494-76.858-53.82-105.08-2-3.078.356-5.689-7.094-4.105L365.69,467.682Z" fill="#3cd2f9"/><path d="M359.946,567.011c-3.043-.442-10.685-3.584-12.17-7.126L195.917,200.167l151.348-83.813c9.994.747,54.036,93.979,61.522,109.265,50.033,102.19,108.009,218.74,150.451,323.346,2.63,6.481,8.335,13.772,1.043,18.046Z" transform="translate(427.082 253.641)" fill="#3cd2f9"/></g></svg>