<svg xmlns="http://www.w3.org/2000/svg" width="1295.018" height="273.056" viewBox="0 0 1295.018 273.056"><g transform="translate(-10669 -5922)"><path fill="#ffffff" d="M12.354-15.045a67,67,0,0,1,9.506-35.2A72.481,72.481,0,0,1,47.364-75.561a67.985,67.985,0,0,1,35.387-9.506h108.8V109.939H151.831V-45.35H82.751A29.685,29.685,0,0,0,61.1-36.409a29.438,29.438,0,0,0-9.035,21.74V39.165A30.059,30.059,0,0,0,61.1,61.093a29.379,29.379,0,0,0,21.646,9.129h46.493v39.716H82.751a67.985,67.985,0,0,1-35.387-9.506A71.98,71.98,0,0,1,21.859,74.928a67.985,67.985,0,0,1-9.506-35.387Zm222.487.376a67.985,67.985,0,0,1,9.506-35.387,71.98,71.98,0,0,1,25.505-25.505,67.985,67.985,0,0,1,35.387-9.506h46.493V-45.35H305.238a29.379,29.379,0,0,0-21.646,9.129,30.059,30.059,0,0,0-9.035,21.929V39.541a29.53,29.53,0,0,0,9.035,21.646,29.53,29.53,0,0,0,21.646,9.035h69.08V-157.723h39.716V70.222a38.242,38.242,0,0,1-11.67,28.046,38.242,38.242,0,0,1-28.046,11.67h-69.08a67.985,67.985,0,0,1-35.387-9.506,72.227,72.227,0,0,1-25.505-25.411,67.146,67.146,0,0,1-9.506-35.1ZM459.21-30.48a51.519,51.519,0,0,1,7.623-27.481,56.827,56.827,0,0,1,20.329-19.764,55.235,55.235,0,0,1,28.14-7.341h43.481v39.528H515.3a16.106,16.106,0,0,0-11.576,4.612,14.951,14.951,0,0,0-4.8,11.2V109.939H459.21ZM594.547-44.786A38.1,38.1,0,0,1,606.782-73.3a40.862,40.862,0,0,1,29.364-11.764h81.315a54,54,0,0,1,28.328,7.623,57.9,57.9,0,0,1,20.329,20.517,54.99,54.99,0,0,1,7.623,28.517v5.459a53.655,53.655,0,0,1-7.623,28.14,58.4,58.4,0,0,1-20.329,20.329,54,54,0,0,1-28.328,7.623h-60.61V-6.387h60.986a15.625,15.625,0,0,0,11.576-4.894,16.311,16.311,0,0,0,4.8-11.858v-5.27a16.539,16.539,0,0,0-4.8-12.047,15.625,15.625,0,0,0-11.576-4.894H634.263V54.788A15.206,15.206,0,0,0,638.592,65.7a14.049,14.049,0,0,0,10.541,4.518H760v39.716H649.133a52.5,52.5,0,0,1-27.481-7.435,55.768,55.768,0,0,1-19.764-19.952,53.515,53.515,0,0,1-7.341-27.576Zm441.774-93.362a23.587,23.587,0,0,1,7.153-17.317,23.587,23.587,0,0,1,17.317-7.153,23.587,23.587,0,0,1,17.317,7.153,23.587,23.587,0,0,1,7.153,17.317,23.587,23.587,0,0,1-7.153,17.317,23.587,23.587,0,0,1-17.317,7.153,23.587,23.587,0,0,1-17.317-7.153A23.587,23.587,0,0,1,1036.321-138.147Zm4.517,53.081h39.9V109.939h-39.9Zm83.2,70.4a67.984,67.984,0,0,1,9.506-35.387,71.98,71.98,0,0,1,25.505-25.505,67.986,67.986,0,0,1,35.387-9.506h42.54a67.986,67.986,0,0,1,35.387,9.506,71.98,71.98,0,0,1,25.505,25.505,67.984,67.984,0,0,1,9.506,35.387v54.21a67.984,67.984,0,0,1-9.506,35.387,71.98,71.98,0,0,1-25.505,25.505,67.986,67.986,0,0,1-35.387,9.506h-42.54a67.986,67.986,0,0,1-35.387-9.506,71.98,71.98,0,0,1-25.505-25.505,67.984,67.984,0,0,1-9.506-35.387Zm39.716,53.834a30.059,30.059,0,0,0,9.035,21.929,29.379,29.379,0,0,0,21.646,9.129h42.54a29.288,29.288,0,0,0,21.74-9.129,30.221,30.221,0,0,0,8.941-21.929V-14.293a30.221,30.221,0,0,0-8.941-21.929,29.288,29.288,0,0,0-21.74-9.129h-42.54a29.379,29.379,0,0,0-21.646,9.129,30.059,30.059,0,0,0-9.035,21.929Z" transform="translate(10656.646 6084.617)"/><g transform="translate(11448.359 5999.55)"><path d="M69.328,82.232,0,0H44.193L92,57.1,69.328,82.231h0Z" transform="translate(0 0)" fill="#3cd2f9" stroke="rgba(0,0,0,0)" stroke-miterlimit="10" stroke-width="1"/><path fill="#ffffff" d="M160.371,195.005l-54.964-67.574L50.446,195.005H0l79.432-97.69,25.976-29.741L160.183,0h50.446L131.385,97.315l79.244,97.69Z" stroke="rgba(0,0,0,0)" stroke-miterlimit="10" stroke-width="1"/></g></g></svg>